<svg width="38" height="39" viewBox="0 0 38 39" fill="none" xmlns="http://www.w3.org/2000/svg">
<g filter="url(#filter0_i_2007_3425)">
<path fill-rule="evenodd" clip-rule="evenodd" d="M16.625 27.3364C16.625 24.0572 13.9667 21.3989 10.6875 21.3989V21.3989C4.78496 21.3989 1.39367e-06 16.614 0 10.7114C0 4.80888 4.78496 0.0239258 10.6875 0.0239258C16.59 0.0239244 21.375 4.80888 21.375 10.7114V10.7114C21.375 13.9906 24.0333 16.6489 27.3125 16.6489V16.6489C33.215 16.6489 38 21.4339 38 27.3364C38 33.239 33.215 38.0239 27.3125 38.0239C21.41 38.0239 16.625 33.239 16.625 27.3364V27.3364Z" fill="#D32F2F"/>
</g>
<defs>
<filter id="filter0_i_2007_3425" x="-1" y="0.0239258" width="39" height="41" filterUnits="userSpaceOnUse" color-interpolation-filters="sRGB">
<feFlood flood-opacity="0" result="BackgroundImageFix"/>
<feBlend mode="normal" in="SourceGraphic" in2="BackgroundImageFix" result="shape"/>
<feColorMatrix in="SourceAlpha" type="matrix" values="0 0 0 0 0 0 0 0 0 0 0 0 0 0 0 0 0 0 127 0" result="hardAlpha"/>
<feOffset dx="-1" dy="3"/>
<feGaussianBlur stdDeviation="1.5"/>
<feComposite in2="hardAlpha" operator="arithmetic" k2="-1" k3="1"/>
<feColorMatrix type="matrix" values="0 0 0 0 0.988963 0 0 0 0 0.432533 0 0 0 0 0.194603 0 0 0 1 0"/>
<feBlend mode="normal" in2="shape" result="effect1_innerShadow_2007_3425"/>
</filter>
</defs>
</svg>
