<svg width="106" height="22" viewBox="0 0 106 22" fill="none" xmlns="http://www.w3.org/2000/svg">
<g filter="url(#filter0_i_2007_3364)">
<path d="M10.5245 1.98733C10.6741 1.52667 11.3259 1.52667 11.4755 1.98733L13.2451 7.43363C13.3121 7.63965 13.5041 7.77913 13.7207 7.77913H19.4473C19.9316 7.77913 20.133 8.39893 19.7411 8.68363L15.1082 12.0496C14.933 12.177 14.8597 12.4026 14.9266 12.6087L16.6962 18.055C16.8459 18.5156 16.3187 18.8987 15.9268 18.614L11.2939 15.248C11.1186 15.1207 10.8814 15.1207 10.7061 15.248L6.0732 18.614C5.68135 18.8987 5.15411 18.5156 5.30378 18.055L7.07339 12.6087C7.14033 12.4026 7.067 12.177 6.89176 12.0496L2.25886 8.68363C1.867 8.39893 2.06839 7.77913 2.55275 7.77913H8.27933C8.49594 7.77913 8.68792 7.63965 8.75486 7.43363L10.5245 1.98733Z" fill="url(#paint0_linear_2007_3364)"/>
</g>
<g filter="url(#filter1_i_2007_3364)">
<path d="M31.5245 1.98733C31.6741 1.52667 32.3259 1.52667 32.4755 1.98733L34.2451 7.43363C34.3121 7.63965 34.5041 7.77913 34.7207 7.77913H40.4473C40.9316 7.77913 41.133 8.39893 40.7411 8.68363L36.1082 12.0496C35.933 12.177 35.8597 12.4026 35.9266 12.6087L37.6962 18.055C37.8459 18.5156 37.3187 18.8987 36.9268 18.614L32.2939 15.248C32.1186 15.1207 31.8814 15.1207 31.7061 15.248L27.0732 18.614C26.6813 18.8987 26.1541 18.5156 26.3038 18.055L28.0734 12.6087C28.1403 12.4026 28.067 12.177 27.8918 12.0496L23.2589 8.68363C22.867 8.39893 23.0684 7.77913 23.5527 7.77913H29.2793C29.4959 7.77913 29.6879 7.63965 29.7549 7.43363L31.5245 1.98733Z" fill="url(#paint1_linear_2007_3364)"/>
</g>
<g filter="url(#filter2_i_2007_3364)">
<path d="M52.5245 1.98733C52.6741 1.52667 53.3259 1.52667 53.4755 1.98733L55.2451 7.43363C55.3121 7.63965 55.5041 7.77913 55.7207 7.77913H61.4473C61.9316 7.77913 62.133 8.39893 61.7411 8.68363L57.1082 12.0496C56.933 12.177 56.8597 12.4026 56.9266 12.6087L58.6962 18.055C58.8459 18.5156 58.3187 18.8987 57.9268 18.614L53.2939 15.248C53.1186 15.1207 52.8814 15.1207 52.7061 15.248L48.0732 18.614C47.6813 18.8987 47.1541 18.5156 47.3038 18.055L49.0734 12.6087C49.1403 12.4026 49.067 12.177 48.8918 12.0496L44.2589 8.68363C43.867 8.39893 44.0684 7.77913 44.5527 7.77913H50.2793C50.4959 7.77913 50.6879 7.63965 50.7549 7.43363L52.5245 1.98733Z" fill="url(#paint2_linear_2007_3364)"/>
</g>
<g filter="url(#filter3_i_2007_3364)">
<path d="M73.5245 1.98733C73.6741 1.52667 74.3259 1.52667 74.4755 1.98733L76.2451 7.43363C76.3121 7.63965 76.5041 7.77913 76.7207 7.77913H82.4473C82.9316 7.77913 83.133 8.39893 82.7411 8.68363L78.1082 12.0496C77.933 12.177 77.8597 12.4026 77.9266 12.6087L79.6962 18.055C79.8459 18.5156 79.3187 18.8987 78.9268 18.614L74.2939 15.248C74.1186 15.1207 73.8814 15.1207 73.7061 15.248L69.0732 18.614C68.6813 18.8987 68.1541 18.5156 68.3038 18.055L70.0734 12.6087C70.1403 12.4026 70.067 12.177 69.8918 12.0496L65.2589 8.68363C64.867 8.39893 65.0684 7.77913 65.5527 7.77913H71.2793C71.4959 7.77913 71.6879 7.63965 71.7549 7.43363L73.5245 1.98733Z" fill="url(#paint3_linear_2007_3364)"/>
</g>
<g filter="url(#filter4_i_2007_3364)">
<path d="M94.6671 2.03368C94.7719 1.71122 95.2281 1.71122 95.3329 2.03368L97.1025 7.47999C97.1895 7.7478 97.4391 7.92913 97.7207 7.92913H103.447C103.786 7.92913 103.927 8.36299 103.653 8.56228L99.0201 11.9283C98.7923 12.0938 98.6969 12.3872 98.7839 12.655L100.554 18.1013C100.658 18.4238 100.289 18.6919 100.015 18.4926L95.3821 15.1266C95.1542 14.9611 94.8458 14.9611 94.6179 15.1266L89.985 18.4926C89.7107 18.6919 89.3417 18.4238 89.4464 18.1013L91.2161 12.655C91.3031 12.3872 91.2077 12.0938 90.9799 11.9283L86.347 8.56228C86.0727 8.36299 86.2137 7.92913 86.5527 7.92913H92.2793C92.5609 7.92913 92.8105 7.7478 92.8975 7.47999L94.6671 2.03368Z" stroke="#ED9B00" stroke-width="0.3"/>
</g>
<g filter="url(#filter5_i_2007_3364)">
<path d="M94.0242 3.52617C94.2002 2.98465 94.9998 3.11129 94.9998 3.68068V7.77913V14.7797C94.9998 14.9397 94.9231 15.0901 94.7937 15.1842L90.073 18.614C89.6811 18.8987 89.1539 18.5156 89.3035 18.055L91.0732 12.6087C91.1401 12.4026 91.0668 12.177 90.8915 12.0496L86.2586 8.68363C85.8668 8.39893 86.0682 7.77913 86.5525 7.77913H92.2791C92.4957 7.77913 92.6877 7.63965 92.7546 7.43363L94.0242 3.52617Z" fill="url(#paint4_linear_2007_3364)"/>
</g>
<defs>
<filter id="filter0_i_2007_3364" x="2.05176" y="1.64185" width="17.8965" height="18.0699" filterUnits="userSpaceOnUse" color-interpolation-filters="sRGB">
<feFlood flood-opacity="0" result="BackgroundImageFix"/>
<feBlend mode="normal" in="SourceGraphic" in2="BackgroundImageFix" result="shape"/>
<feColorMatrix in="SourceAlpha" type="matrix" values="0 0 0 0 0 0 0 0 0 0 0 0 0 0 0 0 0 0 127 0" result="hardAlpha"/>
<feOffset dy="1"/>
<feGaussianBlur stdDeviation="2"/>
<feComposite in2="hardAlpha" operator="arithmetic" k2="-1" k3="1"/>
<feColorMatrix type="matrix" values="0 0 0 0 0.92281 0 0 0 0 0.78257 0 0 0 0 0.517671 0 0 0 1 0"/>
<feBlend mode="normal" in2="shape" result="effect1_innerShadow_2007_3364"/>
</filter>
<filter id="filter1_i_2007_3364" x="23.0518" y="1.64185" width="17.8965" height="18.0699" filterUnits="userSpaceOnUse" color-interpolation-filters="sRGB">
<feFlood flood-opacity="0" result="BackgroundImageFix"/>
<feBlend mode="normal" in="SourceGraphic" in2="BackgroundImageFix" result="shape"/>
<feColorMatrix in="SourceAlpha" type="matrix" values="0 0 0 0 0 0 0 0 0 0 0 0 0 0 0 0 0 0 127 0" result="hardAlpha"/>
<feOffset dy="1"/>
<feGaussianBlur stdDeviation="2"/>
<feComposite in2="hardAlpha" operator="arithmetic" k2="-1" k3="1"/>
<feColorMatrix type="matrix" values="0 0 0 0 0.92281 0 0 0 0 0.78257 0 0 0 0 0.517671 0 0 0 1 0"/>
<feBlend mode="normal" in2="shape" result="effect1_innerShadow_2007_3364"/>
</filter>
<filter id="filter2_i_2007_3364" x="44.0518" y="1.64185" width="17.8965" height="18.0699" filterUnits="userSpaceOnUse" color-interpolation-filters="sRGB">
<feFlood flood-opacity="0" result="BackgroundImageFix"/>
<feBlend mode="normal" in="SourceGraphic" in2="BackgroundImageFix" result="shape"/>
<feColorMatrix in="SourceAlpha" type="matrix" values="0 0 0 0 0 0 0 0 0 0 0 0 0 0 0 0 0 0 127 0" result="hardAlpha"/>
<feOffset dy="1"/>
<feGaussianBlur stdDeviation="2"/>
<feComposite in2="hardAlpha" operator="arithmetic" k2="-1" k3="1"/>
<feColorMatrix type="matrix" values="0 0 0 0 0.92281 0 0 0 0 0.78257 0 0 0 0 0.517671 0 0 0 1 0"/>
<feBlend mode="normal" in2="shape" result="effect1_innerShadow_2007_3364"/>
</filter>
<filter id="filter3_i_2007_3364" x="65.0518" y="1.64185" width="17.8965" height="18.0699" filterUnits="userSpaceOnUse" color-interpolation-filters="sRGB">
<feFlood flood-opacity="0" result="BackgroundImageFix"/>
<feBlend mode="normal" in="SourceGraphic" in2="BackgroundImageFix" result="shape"/>
<feColorMatrix in="SourceAlpha" type="matrix" values="0 0 0 0 0 0 0 0 0 0 0 0 0 0 0 0 0 0 127 0" result="hardAlpha"/>
<feOffset dy="1"/>
<feGaussianBlur stdDeviation="2"/>
<feComposite in2="hardAlpha" operator="arithmetic" k2="-1" k3="1"/>
<feColorMatrix type="matrix" values="0 0 0 0 0.92281 0 0 0 0 0.78257 0 0 0 0 0.517671 0 0 0 1 0"/>
<feBlend mode="normal" in2="shape" result="effect1_innerShadow_2007_3364"/>
</filter>
<filter id="filter4_i_2007_3364" x="86.0518" y="1.64185" width="17.8965" height="18.0699" filterUnits="userSpaceOnUse" color-interpolation-filters="sRGB">
<feFlood flood-opacity="0" result="BackgroundImageFix"/>
<feBlend mode="normal" in="SourceGraphic" in2="BackgroundImageFix" result="shape"/>
<feColorMatrix in="SourceAlpha" type="matrix" values="0 0 0 0 0 0 0 0 0 0 0 0 0 0 0 0 0 0 127 0" result="hardAlpha"/>
<feOffset dy="1"/>
<feGaussianBlur stdDeviation="2"/>
<feComposite in2="hardAlpha" operator="arithmetic" k2="-1" k3="1"/>
<feColorMatrix type="matrix" values="0 0 0 0 0.92281 0 0 0 0 0.78257 0 0 0 0 0.517671 0 0 0 1 0"/>
<feBlend mode="normal" in2="shape" result="effect1_innerShadow_2007_3364"/>
</filter>
<filter id="filter5_i_2007_3364" x="86.0518" y="3.18018" width="8.94824" height="16.5316" filterUnits="userSpaceOnUse" color-interpolation-filters="sRGB">
<feFlood flood-opacity="0" result="BackgroundImageFix"/>
<feBlend mode="normal" in="SourceGraphic" in2="BackgroundImageFix" result="shape"/>
<feColorMatrix in="SourceAlpha" type="matrix" values="0 0 0 0 0 0 0 0 0 0 0 0 0 0 0 0 0 0 127 0" result="hardAlpha"/>
<feOffset dy="1"/>
<feGaussianBlur stdDeviation="2"/>
<feComposite in2="hardAlpha" operator="arithmetic" k2="-1" k3="1"/>
<feColorMatrix type="matrix" values="0 0 0 0 0.92281 0 0 0 0 0.78257 0 0 0 0 0.517671 0 0 0 1 0"/>
<feBlend mode="normal" in2="shape" result="effect1_innerShadow_2007_3364"/>
</filter>
<linearGradient id="paint0_linear_2007_3364" x1="11" y1="8.86204" x2="16.25" y2="15.965" gradientUnits="userSpaceOnUse">
<stop stop-color="#FABB42"/>
<stop offset="1" stop-color="#C48D00"/>
</linearGradient>
<linearGradient id="paint1_linear_2007_3364" x1="32" y1="8.86204" x2="37.25" y2="15.965" gradientUnits="userSpaceOnUse">
<stop stop-color="#FABB42"/>
<stop offset="1" stop-color="#C48D00"/>
</linearGradient>
<linearGradient id="paint2_linear_2007_3364" x1="53" y1="8.86204" x2="58.25" y2="15.965" gradientUnits="userSpaceOnUse">
<stop stop-color="#FABB42"/>
<stop offset="1" stop-color="#C48D00"/>
</linearGradient>
<linearGradient id="paint3_linear_2007_3364" x1="74" y1="8.86204" x2="79.25" y2="15.965" gradientUnits="userSpaceOnUse">
<stop stop-color="#FABB42"/>
<stop offset="1" stop-color="#C48D00"/>
</linearGradient>
<linearGradient id="paint4_linear_2007_3364" x1="92.9998" y1="7.5238" x2="95.9998" y2="16.0238" gradientUnits="userSpaceOnUse">
<stop stop-color="#FABB42"/>
<stop offset="1" stop-color="#C48D00"/>
</linearGradient>
</defs>
</svg>
