{/* Custom Wave Pattern SVG */}
<svg 
  viewBox="0 0 1440 320" 
  style={{
    position: 'absolute',
    bottom: 0,
    left: 0,
    width: '100%',
    height: '150px',
    transform: 'rotate(180deg)',
    opacity: 0.1
  }}
>
  <path 
    fill="#ffffff" 
    d="M0,160L48,181.3C96,203,192,245,288,234.7C384,224,480,160,576,160C672,160,768,224,864,218.7C960,213,1056,139,1152,117.3C1248,96,1344,128,1392,144L1440,160L1440,320L1392,320C1344,320,1248,320,1152,320C1056,320,960,320,864,320C768,320,672,320,576,320C480,320,384,320,288,320C192,320,96,320,48,320L0,320Z"
  ></path>
</svg>